<svg xmlns="http://www.w3.org/2000/svg" width="513.12" height="159.34" viewBox="0 0 513.12 159.34"><path d="M14.07,60.78,21.48,58V9.68L14.07,8.31V4.21H62l1,17.46H59.38L48.84,8.79H35.56V31.08H55.44v5.64H35.56V59.33h16L62.92,45h3.7L64.29,64.56H14.07Z" transform="translate(-12.87 -2.76)"/><path d="M75.48,45.65h6.19c0,9.82,7.49,15,13.76,15,4.43,0,8.29-2.58,8.29-8,0-6.68-5.79-9.25-13.28-13C81.51,35.11,74.75,31,74.75,20.78c0-12.71,10.54-18,21.73-18a35.41,35.41,0,0,1,19.23,5.55l-4,11.75H105.9C105.41,12,100,8.39,95.19,8.39c-4.18,0-7.88,2.74-7.88,7.56,0,6.6,6.67,9.5,13.84,12.8,8.53,3.94,16.09,8,16.09,18.67,0,13.12-11.26,18.67-22.93,18.67-7.49,0-15.13-2.25-20.44-6.28Z" transform="translate(-12.87 -2.76)"/><path d="M179.93,39.53l-4.26.73V58.69a38,38,0,0,1-22.21,7.4c-15.7,0-31-10.7-31-31.3,0-21.41,16.5-32,32.84-32a38,38,0,0,1,21.16,6.43l-5.79,14.73h-5a9.87,9.87,0,0,0,.08-1.37c0-9.41-6.44-14.32-13.68-14.32-11.19,0-16.82,11.18-16.82,22.85,0,13.2,7.24,27,21.16,27a16.06,16.06,0,0,0,6-1V41.38h-10v-6h27.52Z" transform="translate(-12.87 -2.76)"/><path d="M193.45,19a7,7,0,0,1,7.25,7.24,7.17,7.17,0,1,1-14.33,0A7,7,0,0,1,193.45,19Zm0,31.47a7.24,7.24,0,1,1-7.08,7.24A7,7,0,0,1,193.45,50.48Z" transform="translate(-12.87 -2.76)"/><path d="M228.06,60.78l7.4-2.82V9.68l-7.4-1.37V4.21H257V8l-7.4,2.81V31.32h22.77V9.68l-7.4-1.37V4.21h28.89V8L286.4,10.8V59.09l7.41,1.37v4.1H264.92V60.78l7.4-2.82V37H249.55V59.09l7.4,1.37v4.1H228.06Z" transform="translate(-12.87 -2.76)"/><path d="M339.28,56l5.71,1v3.7l-16.34,4.75V56.35l-9.17,8.37a8.4,8.4,0,0,1-3.78.81c-5.39,0-12.88-3.79-12.88-14.65V28.51l-6.2-2V22.55h18.27V48.14c0,5.24,2.66,7.57,5.72,7.57a8.69,8.69,0,0,0,6.6-3.7V28.51l-6.12-2V22.55h18.19ZM312.48,5.81c3.3,0,5.39,2.18,5.39,5.64s-2.09,5.63-5.39,5.63a5.25,5.25,0,0,1-5.55-5.63C306.93,8,309.1,5.81,312.48,5.81ZM328,5.73c3.46,0,5.63,2.26,5.63,5.72A5.24,5.24,0,0,1,328,17.08c-3.14,0-5.39-2.17-5.39-5.63S324.87,5.73,328,5.73Z" transform="translate(-12.87 -2.76)"/><path d="M347.81,60.78,354,58.44V30.84L348,28V25.37l16.66-3.62V32.29l9.65-10.14a21.18,21.18,0,0,1,9.1,1.93l-3.14,12A12.43,12.43,0,0,0,373.48,34a12.56,12.56,0,0,0-7.41,2.42v23l6.2,1.05v4.1H347.81Z" transform="translate(-12.87 -2.76)"/><path d="M405.75,21.75A22.36,22.36,0,0,1,412.67,23V12.65l-6-2.81V7.18l18.11-3.94V56l5.72,1v3.7l-16.34,4.75V57.08l-10.46,8a11.23,11.23,0,0,1-3.38.49c-7,0-14.89-6-14.89-20.2C385.39,28.59,396.41,21.75,405.75,21.75Zm6.92,7.48a8,8,0,0,0-6.28-2.73c-6.35,0-9.33,5.87-9.33,13.84,0,9.82,4.26,15.45,9.41,15.45a9.44,9.44,0,0,0,6.2-2.58Z" transform="translate(-12.87 -2.76)"/><path d="M471.5,52.09c-2.74,9.09-10.06,13.44-17.55,13.44-9.81,0-19.87-7.49-19.87-21.65,0-14.73,10.46-22.13,20.2-22.13,8.53,0,16.89,5.71,16.89,17.94a25.93,25.93,0,0,1-.32,4.19H444.22c1,8.37,6.68,11.91,12.63,11.91,4.51,0,9.17-2.33,12.39-7.16ZM460,38.08c.88-7.8-2.58-11.1-6.52-11.1s-8.53,3.06-9.25,11.1Z" transform="translate(-12.87 -2.76)"/><path d="M475.52,60.78l6.2-2.34V30.84l-6-2.81V25.37l16.66-3.62v9.17l9.18-8.37a18.3,18.3,0,0,1,5.23-.8c6.43,0,13,3.86,13,14.16v23.5l6.2,1.05v4.1H502.56V60.38l5.15-1.94V38.65c0-5.47-2.49-7.81-5.63-7.81-2.66,0-5.71,1.61-8.29,4.27v24.3l5.15.89v4.26H475.52Z" transform="translate(-12.87 -2.76)"/><path d="M55.52,152.6l5.71,1.05v3.7L44.89,162.1v-9.17l-9.17,8.36a8.4,8.4,0,0,1-3.78.81c-5.39,0-12.88-3.78-12.88-14.65V125.08l-6.19-2v-3.94H31.13v25.59c0,5.23,2.66,7.56,5.72,7.56a8.68,8.68,0,0,0,6.6-3.7v-23.5l-6.12-2v-3.94H55.52Zm-26.8-50.21c3.3,0,5.39,2.17,5.39,5.63s-2.09,5.63-5.39,5.63A5.25,5.25,0,0,1,23.17,108C23.17,104.56,25.34,102.39,28.72,102.39Zm15.53-.08c3.46,0,5.63,2.25,5.63,5.71a5.24,5.24,0,0,1-5.63,5.63c-3.14,0-5.39-2.17-5.39-5.63S41.11,102.31,44.25,102.31Z" transform="translate(-12.87 -2.76)"/><path d="M68.07,109.23l-6-2.82v-2.66l18.1-3.94v25.83L89,118.8a12.29,12.29,0,0,1,3.55-.48c10.14,0,15.45,9.66,15.45,20.12,0,15.05-10.87,23.66-23.9,23.66a33.65,33.65,0,0,1-16-4.27Zm17.54,48c5.56,0,10.47-4.75,10.47-14.16,0-7.41-3-15.13-9.26-15.13a9.38,9.38,0,0,0-6.68,3v24.78A10.81,10.81,0,0,0,85.61,157.19Z" transform="translate(-12.87 -2.76)"/><path d="M150.24,148.66c-2.74,9.09-10.06,13.44-17.55,13.44-9.81,0-19.87-7.48-19.87-21.65,0-14.73,10.46-22.13,20.2-22.13,8.53,0,16.9,5.72,16.9,18a26,26,0,0,1-.33,4.18H123c1,8.37,6.68,11.91,12.63,11.91,4.51,0,9.18-2.33,12.39-7.16Zm-11.51-14c.88-7.81-2.58-11.11-6.52-11.11s-8.53,3.06-9.25,11.11Z" transform="translate(-12.87 -2.76)"/><path d="M155.07,157.35l6.19-2.33v-27.6l-6-2.82v-2.66l16.66-3.62v10.54l9.65-10.14a21.18,21.18,0,0,1,9.1,1.94l-3.14,12a12.36,12.36,0,0,0-6.76-2.1,12.56,12.56,0,0,0-7.41,2.42v23l6.2,1.05v4.1H155.07Z" transform="translate(-12.87 -2.76)"/><path d="M196.59,125.24l-6.36-2.41v-3.7H215v4.34l-5.87.81L215,145.52l7.89-26.39h7.24l9.74,27.92,6-21.89L239,122.83v-3.7h19.8v4.26l-6.36,1.13-10.06,34.92-8,2.34-10.22-27.44-7.48,25.35-7.4,2.09Z" transform="translate(-12.87 -2.76)"/><path d="M260,157.35,266.2,155V127.74l-6-2.82v-2.66l18.1-3.94V156l6.2,1.05v4.1H260Zm3.46-52.15c0-4.74,3.3-7.88,8-7.88s8,3.14,8,7.88-3.3,7.89-8,7.89S263.47,110,263.47,105.2Z" transform="translate(-12.87 -2.76)"/><path d="M287.69,157.35l6.2-2.33v-27.6l-6-2.82v-2.66l16.66-3.62v9.18l9.17-8.37a18,18,0,0,1,5.23-.81c6.44,0,13,3.86,13,14.16V156l6.2,1.05v4.1H314.73V157l5.15-1.93v-19.8c0-5.47-2.49-7.8-5.63-7.8-2.66,0-5.72,1.6-8.29,4.26V156l5.15.89v4.26H287.69Z" transform="translate(-12.87 -2.76)"/><path d="M361.73,118.32a22.36,22.36,0,0,1,6.92,1.29V109.23l-6-2.82v-2.66l18.11-3.94V152.6l5.71,1.05v3.7L370.1,162.1v-8.45l-10.46,8a11.55,11.55,0,0,1-3.38.48c-7,0-14.89-6-14.89-20.2C341.37,125.16,352.39,118.32,361.73,118.32Zm6.92,7.49a8,8,0,0,0-6.28-2.74c-6.36,0-9.33,5.87-9.33,13.84,0,9.82,4.26,15.45,9.41,15.45a9.44,9.44,0,0,0,6.2-2.57Z" transform="translate(-12.87 -2.76)"/><path d="M427.48,148.66c-2.74,9.09-10.06,13.44-17.55,13.44-9.81,0-19.87-7.48-19.87-21.65,0-14.73,10.46-22.13,20.19-22.13,8.54,0,16.9,5.72,16.9,18a25.9,25.9,0,0,1-.32,4.18H400.2c1,8.37,6.68,11.91,12.63,11.91,4.51,0,9.17-2.33,12.39-7.16Zm-11.51-14c.88-7.81-2.58-11.11-6.52-11.11s-8.53,3.06-9.25,11.11Z" transform="translate(-12.87 -2.76)"/><path d="M431.5,157.35l6.2-2.33v-27.6l-6-2.82v-2.66l16.66-3.62v9.18l9.18-8.37a18,18,0,0,1,5.23-.81c6.43,0,13,3.86,13,14.16V156L482,157v4.1H458.54V157l5.15-1.93v-19.8c0-5.47-2.49-7.8-5.63-7.8-2.66,0-5.72,1.6-8.29,4.26V156l5.15.89v4.26H431.5Z" transform="translate(-12.87 -2.76)"/><path d="M493.47,147.05a7.25,7.25,0,1,1-7.08,7.24A7,7,0,0,1,493.47,147.05Z" transform="translate(-12.87 -2.76)"/></svg>