<svg xmlns="http://www.w3.org/2000/svg" width="451.47" height="159.34" viewBox="0 0 451.47 159.34"><path d="M55.36,22.55c0-9.49-5.88-14.32-12.32-14.32-7.88,0-16.65,7.4-16.65,22.21,0,15.53,9.65,24,19.79,24,7.32,0,14.57-4.42,18.59-12.55L67.51,45c-3.06,14.16-14,21.08-25,21.08-13.84,0-28-10.78-28-31.38C14.47,13.14,30,2.76,45.94,2.76A34.9,34.9,0,0,1,66.46,9.19L60.18,25.05h-5C55.28,24.16,55.36,23.28,55.36,22.55Z" transform="translate(-14.47 -2.76)"/><path d="M72.34,60.78l6.19-2.34V12.65l-6-2.81V7.18L90.61,3.24V29.63l7.72-7.08a18.35,18.35,0,0,1,5.23-.8c6.44,0,13,3.86,13,14.16v23.5l6.2,1.05v4.1H99.38V60.38l5.15-1.94V38.65c0-5.47-2.5-7.81-5.64-7.81-2.65,0-5.71,1.61-8.28,4.27v24.3l5.15.89v4.26H72.34Z" transform="translate(-14.47 -2.76)"/><path d="M144.36,64.72a16.91,16.91,0,0,1-5.55.81c-8.21,0-12.39-5.48-12.39-11.75,0-6.68,4.83-10.79,12.23-12.72L150.32,38V33.18c0-4.27-2.9-6.2-5.88-6.2-3.54,0-7.32,2.9-7.32,8.29a8.91,8.91,0,0,0,.08,1.37h-5.31l-3.7-9.5a34.55,34.55,0,0,1,18.35-5.39c8.45,0,15.53,3.62,15.53,13.12V53.62c0,2.73,1.29,3.86,3,3.86A3.28,3.28,0,0,0,167.86,56l1.45,4.1a9.08,9.08,0,0,1-8.37,5.4c-3.78,0-8.13-2.18-8.21-8.45Zm6-22.45-6.2,1.85c-4.67,1.37-7.08,4.43-7.08,7.48,0,2.66,1.85,5.24,5.79,5.24a9.68,9.68,0,0,0,7.49-3.55Z" transform="translate(-14.47 -2.76)"/><path d="M171.32,60.78l6.2-2.34V30.84l-6-2.81V25.37l16.65-3.62v9.17l9.18-8.37a18.35,18.35,0,0,1,5.23-.8c6.44,0,13,3.86,13,14.16v23.5l6.19,1.05v4.1H198.36V60.38l5.15-1.94V38.65c0-5.47-2.49-7.81-5.63-7.81-2.65,0-5.71,1.61-8.29,4.27v24.3l5.15.89v4.26H171.32Z" transform="translate(-14.47 -2.76)"/><path d="M244.88,27c-4.43,0-8.85,4.43-8.85,13.36,0,10.38,5.95,15.45,12.23,15.45,4.43,0,9-2.5,11.91-8l2.25,3.46c-3,10-10.62,14.25-17.94,14.25C234.74,65.53,225,58,225,43.88c0-14.25,10-22.13,22-22.13a32.32,32.32,0,0,1,14.65,3.78L258.08,38h-4.91C253.09,30.68,249,27,244.88,27Z" transform="translate(-14.47 -2.76)"/><path d="M303.87,52.09c-2.74,9.09-10.06,13.44-17.55,13.44-9.81,0-19.87-7.49-19.87-21.65,0-14.73,10.46-22.13,20.2-22.13,8.53,0,16.9,5.71,16.9,17.94a24.9,24.9,0,0,1-.33,4.19H276.59c1,8.37,6.68,11.91,12.63,11.91,4.51,0,9.18-2.33,12.39-7.16Zm-11.51-14c.89-7.8-2.57-11.1-6.52-11.1s-8.53,3.06-9.25,11.1Z" transform="translate(-14.47 -2.76)"/><path d="M307.89,60.78l6.2-2.34V30.84l-6-2.81V25.37l16.66-3.62v9.17l9.18-8.37a18.35,18.35,0,0,1,5.23-.8c6.43,0,13,3.86,13,14.16v23.5l6.2,1.05v4.1H334.93V60.38l5.15-1.94V38.65c0-5.47-2.49-7.81-5.63-7.81-2.66,0-5.71,1.61-8.29,4.27v24.3l5.15.89v4.26H307.89Z" transform="translate(-14.47 -2.76)"/><path d="M51.9,148.66c-2.74,9.09-10.06,13.44-17.55,13.44-9.82,0-19.88-7.48-19.88-21.65,0-14.73,10.47-22.13,20.2-22.13,8.53,0,16.9,5.72,16.9,18a25.9,25.9,0,0,1-.32,4.18H24.61c1,8.37,6.68,11.91,12.64,11.91,4.51,0,9.17-2.33,12.39-7.16Zm-11.51-14c.88-7.81-2.58-11.11-6.52-11.11s-8.53,3.06-9.26,11.11Z" transform="translate(-14.47 -2.76)"/><path d="M55.92,157.35l6.2-2.33v-27.6l-6-2.82v-2.66l16.66-3.62v9.18l9.17-8.37a18,18,0,0,1,5.23-.81c6.44,0,13,3.86,13,14.16V156l6.2,1.05v4.1H83V157L88.11,155v-19.8c0-5.47-2.49-7.8-5.63-7.8-2.66,0-5.72,1.6-8.29,4.26V156l5.15.89v4.26H55.92Z" transform="translate(-14.47 -2.76)"/><path d="M126.66,147.61c0,5.64,3.38,7.17,7.16,7.17a17.25,17.25,0,0,0,4.59-.65v5.07A20.91,20.91,0,0,1,128,162.1c-7,0-13.36-3.78-13.36-13.2V124.12h-8.21v-3.87l8.21-2.49v-8.05l12.07-2.49v11.91h11.75v5.39H126.66Z" transform="translate(-14.47 -2.76)"/><path d="M146.38,125.24,140,122.83v-3.7H164.8v4.34l-5.87.81,5.87,21.24,7.89-26.39h7.24l9.74,27.92,6-21.89-6.84-2.33v-3.7h19.79v4.26l-6.36,1.13-10.05,34.92-8,2.34L173.9,134.34l-7.49,25.35-7.4,2.09Z" transform="translate(-14.47 -2.76)"/><path d="M209.79,157.35,216,155V127.74l-6-2.82v-2.66l18.11-3.94V156l6.19,1.05v4.1H209.79Zm3.46-52.15c0-4.74,3.3-7.88,8.05-7.88s8,3.14,8,7.88-3.3,7.89-8,7.89S213.25,110,213.25,105.2Z" transform="translate(-14.47 -2.76)"/><path d="M258.56,123.55c-4.43,0-8.85,4.43-8.85,13.36,0,10.38,5.95,15.45,12.23,15.45,4.42,0,9-2.49,11.91-8l2.25,3.46c-3,10-10.62,14.24-17.94,14.24-9.74,0-19.48-7.56-19.48-21.65s10-22.13,22-22.13a32.32,32.32,0,0,1,14.65,3.78l-3.54,12.48h-4.91C266.77,127.25,262.66,123.55,258.56,123.55Z" transform="translate(-14.47 -2.76)"/><path d="M278.92,157.35l6.2-2.33V109.23l-6-2.82v-2.66l18.11-3.94V156l6.19,1.05v4.1H278.92Zm34.44,3.78-16.09-21.8L313,124.52l-6.92-1.61v-3.78H326.8v4.26l-6.11,1-11.27,10.7,17.38,22.21v3.78Z" transform="translate(-14.47 -2.76)"/><path d="M365.83,148.66c-2.73,9.09-10.06,13.44-17.54,13.44-9.82,0-19.88-7.48-19.88-21.65,0-14.73,10.46-22.13,20.2-22.13,8.53,0,16.9,5.72,16.9,18a25.9,25.9,0,0,1-.32,4.18H338.55c1,8.37,6.68,11.91,12.64,11.91,4.5,0,9.17-2.33,12.39-7.16Zm-11.5-14c.88-7.81-2.58-11.11-6.52-11.11s-8.53,3.06-9.26,11.11Z" transform="translate(-14.47 -2.76)"/><path d="M369.86,157.35l6.19-2.33V109.23l-6-2.82v-2.66l18.11-3.94V156l6.19,1.05v4.1H369.86Z" transform="translate(-14.47 -2.76)"/><path d="M396.74,157.35l6.19-2.33v-27.6l-6-2.82v-2.66l16.66-3.62v9.18l9.17-8.37a18,18,0,0,1,5.23-.81c6.44,0,13,3.86,13,14.16V156l6.2,1.05v4.1H423.78V157l5.15-1.93v-19.8c0-5.47-2.5-7.8-5.64-7.8-2.65,0-5.71,1.6-8.29,4.26V156l5.16.89v4.26H396.74Z" transform="translate(-14.47 -2.76)"/><path d="M458.7,147.05a7.25,7.25,0,1,1-7.08,7.24A7,7,0,0,1,458.7,147.05Z" transform="translate(-14.47 -2.76)"/></svg>